<svg height="1166" width="720" xmlns="http://www.w3.org/2000/svg">
<rect height="1166" fill="#555" width="720"></rect>
<text fill="#7f7" font-family="Courier New" font-size="12" xml:space="preserve">
<tspan x="10" y="26">12 megabytes installed</tspan>
<tspan x="10" y="42"></tspan>
<tspan x="10" y="58">node_modules</tspan>
<tspan x="10" y="74">└─┬ sails-rest@0.1.1 </tspan>
<tspan x="10" y="90">  ├── async@1.5.2 </tspan>
<tspan x="10" y="106">  ├── lodash@3.10.1 </tspan>
<tspan x="10" y="122">  ├─┬ restify@3.0.3 </tspan>
<tspan x="10" y="138">  │ ├── assert-plus@0.1.5 </tspan>
<tspan x="10" y="154">  │ ├─┬ backoff@2.5.0 </tspan>
<tspan x="10" y="170">  │ │ └── precond@0.2.3 </tspan>
<tspan x="10" y="186">  │ ├─┬ bunyan@1.3.4 </tspan>
<tspan x="10" y="202">  │ │ ├─┬ mv@2.1.1 </tspan>
<tspan x="10" y="218">  │ │ │ ├─┬ mkdirp@0.5.1 </tspan>
<tspan x="10" y="234">  │ │ │ │ └── minimist@0.0.8 </tspan>
<tspan x="10" y="250">  │ │ │ ├── ncp@2.0.0 </tspan>
<tspan x="10" y="266">  │ │ │ └─┬ rimraf@2.4.5 </tspan>
<tspan x="10" y="282">  │ │ │   └─┬ glob@6.0.4 </tspan>
<tspan x="10" y="298">  │ │ │     ├── inflight@1.0.6 </tspan>
<tspan x="10" y="314">  │ │ │     ├─┬ minimatch@3.0.3 </tspan>
<tspan x="10" y="330">  │ │ │     │ └─┬ brace-expansion@1.1.7 </tspan>
<tspan x="10" y="346">  │ │ │     │   ├── balanced-match@0.4.2 </tspan>
<tspan x="10" y="362">  │ │ │     │   └── concat-map@0.0.1 </tspan>
<tspan x="10" y="378">  │ │ │     └── path-is-absolute@1.0.1 </tspan>
<tspan x="10" y="394">  │ │ └── safe-json-stringify@1.0.4 </tspan>
<tspan x="10" y="410">  │ ├─┬ csv@0.4.6 </tspan>
<tspan x="10" y="426">  │ │ ├── csv-generate@0.0.6 </tspan>
<tspan x="10" y="442">  │ │ ├── csv-parse@1.2.0 </tspan>
<tspan x="10" y="458">  │ │ ├── csv-stringify@0.0.8 </tspan>
<tspan x="10" y="474">  │ │ └── stream-transform@0.1.2 </tspan>
<tspan x="10" y="490">  │ ├── deep-equal@1.0.1 </tspan>
<tspan x="10" y="506">  │ ├─┬ dtrace-provider@0.4.0 </tspan>
<tspan x="10" y="522">  │ │ └── nan@1.5.3 </tspan>
<tspan x="10" y="538">  │ ├── escape-regexp-component@1.0.2 </tspan>
<tspan x="10" y="554">  │ ├── formidable@1.1.1 </tspan>
<tspan x="10" y="570">  │ ├─┬ http-signature@0.10.1 </tspan>
<tspan x="10" y="586">  │ │ ├── asn1@0.1.11 </tspan>
<tspan x="10" y="602">  │ │ └── ctype@0.5.3 </tspan>
<tspan x="10" y="618">  │ ├── keep-alive-agent@0.0.1 </tspan>
<tspan x="10" y="634">  │ ├── lru-cache@2.7.3 </tspan>
<tspan x="10" y="650">  │ ├── mime@1.3.4 </tspan>
<tspan x="10" y="666">  │ ├── negotiator@0.5.3 </tspan>
<tspan x="10" y="682">  │ ├── node-uuid@1.4.8 </tspan>
<tspan x="10" y="698">  │ ├─┬ once@1.4.0 </tspan>
<tspan x="10" y="714">  │ │ └── wrappy@1.0.2 </tspan>
<tspan x="10" y="730">  │ ├── qs@2.4.2 </tspan>
<tspan x="10" y="746">  │ ├── semver@4.3.6 </tspan>
<tspan x="10" y="762">  │ ├── spdy@1.32.5 </tspan>
<tspan x="10" y="778">  │ ├── tunnel-agent@0.4.3 </tspan>
<tspan x="10" y="794">  │ └─┬ verror@1.9.0 </tspan>
<tspan x="10" y="810">  │   ├── assert-plus@1.0.0 </tspan>
<tspan x="10" y="826">  │   ├── core-util-is@1.0.2 </tspan>
<tspan x="10" y="842">  │   └── extsprintf@1.3.0 </tspan>
<tspan x="10" y="858">  └─┬ superagent@1.8.5 </tspan>
<tspan x="10" y="874">    ├── component-emitter@1.2.1 </tspan>
<tspan x="10" y="890">    ├── cookiejar@2.0.6 </tspan>
<tspan x="10" y="906">    ├─┬ debug@2.6.4 </tspan>
<tspan x="10" y="922">    │ └── ms@0.7.3 </tspan>
<tspan x="10" y="938">    ├── extend@3.0.0 </tspan>
<tspan x="10" y="954">    ├─┬ form-data@1.0.0-rc3 </tspan>
<tspan x="10" y="970">    │ ├─┬ combined-stream@1.0.5 </tspan>
<tspan x="10" y="986">    │ │ └── delayed-stream@1.0.0 </tspan>
<tspan x="10" y="1002">    │ └─┬ mime-types@2.1.15 </tspan>
<tspan x="10" y="1018">    │   └── mime-db@1.27.0 </tspan>
<tspan x="10" y="1034">    ├── formidable@1.0.17 </tspan>
<tspan x="10" y="1050">    ├── methods@1.1.2 </tspan>
<tspan x="10" y="1066">    ├── qs@2.3.3 </tspan>
<tspan x="10" y="1082">    ├─┬ readable-stream@1.0.27-1 </tspan>
<tspan x="10" y="1098">    │ ├── inherits@2.0.3 </tspan>
<tspan x="10" y="1114">    │ ├── isarray@0.0.1 </tspan>
<tspan x="10" y="1130">    │ └── string_decoder@0.10.31 </tspan>
<tspan x="10" y="1146">    └── reduce-component@1.0.1</tspan>
</text>
</svg>
